PathFileType	4	(X/Y/Z)	 Patient4_KneeIso.trc
DataRate	CameraRate	NumFrames	NumMarkers	Units	OrigDataRate	OrigDataStartFrame	OrigNumFrames
100	100	10	33	mm	100	1165	1863
Frame#	Time	Sacral			L.Shoulder			Chest			R.Shoulder			Neck			R.ASIS			L.ASIS			R.Thigh.Superior			R.Thigh.Lateral			R.Thigh.Inferior			R.Patella			L.Thigh.Superior			L.Thigh.Lateral			L.Thigh.Inferior			L.Patella			L.Shank.Superior			L.Shank.Lateral			L.Shank.Inferior			R.Shank.Superior			R.Shank.Lateral			R.Shank.Inferior			R.Heel			R.Midfoot.Superior			R.Midfoot.Lateral			R.Toe			L.Heel			L.Midfoot.Lateral			L.Midfoot.Superior			L.Toe			L.Elbow			L.Wrist			R.Elbow			R.Wrist			
		X1	Y1	Z1	X2	Y2	Z2	X3	Y3	Z3	X4	Y4	Z4	X5	Y5	Z5	X6	Y6	Z6	X7	Y7	Z7	X8	Y8	Z8	X9	Y9	Z9	X10	Y10	Z10	X11	Y11	Z11	X12	Y12	Z12	X13	Y13	Z13	X14	Y14	Z14	X15	Y15	Z15	X16	Y16	Z16	X17	Y17	Z17	X18	Y18	Z18	X19	Y19	Z19	X20	Y20	Z20	X21	Y21	Z21	X22	Y22	Z22	X23	Y23	Z23	X24	Y24	Z24	X25	Y25	Z25	X26	Y26	Z26	X27	Y27	Z27	X28	Y28	Z28	X29	Y29	Z29	X30	Y30	Z30	X31	Y31	Z31	X32	Y32	Z32	X33	Y33	Z33	

1165	11.6400	824.084720	1017.854700	532.536010	585.227540	1447.688500	663.500610	516.688960	1346.277100	502.326780	603.331420	1429.095900	335.896360	614.350710	1490.987700	522.801700	610.715940	925.666200	402.711240	606.198490	971.468690	672.786070	570.982730	728.313480	444.334440	657.269650	617.901060	398.541720	577.221010	572.535460	479.923550	578.087220	487.951320	478.092830	519.836610	793.084470	624.104190	552.201970	671.089360	699.585080	466.676240	604.255980	613.040470	443.516970	531.765440	608.574950	470.616490	458.021420	630.591920	549.211550	348.372920	708.200990	502.775150	230.308030	642.091980	602.684940	396.594360	479.587430	674.737850	286.439580	428.568180	626.114930	198.726730	495.567540	757.329830	35.786000	539.148250	587.392520	90.574850	494.649720	676.965150	28.314700	461.541900	468.913360	39.808250	462.798000	625.321410	65.119750	637.593200	538.275880	68.908610	704.654720	464.226620	133.467320	663.406430	331.649990	90.116510	670.035520	615.929140	1160.263200	872.886720	366.714140	1142.178700	908.878970	736.266420	1192.115100	128.020860	646.598510	1074.217000	-83.140570	
1166	11.6500	824.189390	1017.289600	532.621400	586.940190	1447.777000	663.877320	518.001950	1346.834700	502.533080	605.177670	1429.606900	336.243380	616.122440	1491.161000	523.259030	610.645570	925.942930	402.282620	605.817570	971.621280	672.387080	570.399840	728.469060	443.717770	657.238590	617.819460	398.260470	577.106810	572.456910	479.416690	578.254210	487.662780	477.443150	518.916810	793.315310	622.876460	550.600280	671.449400	698.327150	465.383670	604.730160	611.493650	442.302000	531.940310	607.152100	469.681490	458.089600	629.294250	548.132570	348.890810	707.425720	502.461430	230.483030	641.380490	602.643550	396.582240	479.400910	674.775090	286.390870	428.443270	626.041140	198.736220	495.454190	757.324890	35.775700	539.127750	587.428770	90.642170	494.556370	676.946350	28.297020	461.557400	468.949400	39.865780	462.735080	625.662480	65.854840	637.894710	538.378850	69.339230	704.505490	464.171390	133.683500	662.837650	331.795290	89.831950	668.889770	616.297790	1160.027000	873.034240	366.897580	1142.717200	908.914310	736.544740	1192.121900	127.931640	646.220830	1074.765100	-83.211820	
1167	11.6600	824.241520	1016.804600	532.722960	588.479550	1447.889400	664.142520	519.286870	1347.408300	502.635470	606.904170	1430.051400	336.715450	617.950070	1491.336400	523.675480	610.814940	926.329900	401.654480	605.417600	971.708800	671.909000	569.970460	728.619450	443.199430	657.239620	617.794490	398.038240	576.859500	572.443730	478.972900	578.063960	487.828130	477.305510	517.857420	793.439210	621.431400	549.072200	671.609190	697.004210	464.236850	604.943480	609.900450	441.416410	531.795900	605.352720	468.682500	458.026640	628.092650	547.458680	349.370000	706.712040	502.597440	230.624220	640.687380	602.551510	396.522310	479.198430	674.717290	286.308620	428.346710	626.137630	198.632160	495.241670	757.328310	35.763050	539.111210	587.523800	90.639300	494.501560	676.902100	28.255100	461.569270	468.986660	39.941730	462.664550	626.612920	66.552180	638.246030	538.973270	69.779370	704.458620	464.696440	133.765870	662.405760	332.461640	89.322640	667.955200	616.637700	1159.797500	873.080750	367.058720	1143.298200	909.042240	736.838070	1192.139600	127.891780	645.951050	1075.308500	-83.326580	
1168	11.6700	824.232790	1016.335300	532.747380	590.003050	1448.068500	664.540830	520.611690	1348.001600	502.619380	608.725950	1430.533200	336.979250	619.651920	1491.522600	524.008060	610.865970	926.669010	401.074100	604.915160	971.736880	671.322690	569.028930	729.308590	443.198180	657.253300	617.738830	397.773560	576.719540	572.361630	478.550600	577.881410	487.798400	477.124600	516.953370	793.687320	620.206670	547.724370	671.817750	695.765750	463.363710	605.284180	608.089170	440.570010	531.753540	604.167970	468.042820	457.949130	626.980830	547.207890	349.804080	706.066470	503.077030	230.758850	640.138670	602.447020	396.519470	479.018250	674.736510	286.282380	428.185300	626.112850	198.608310	495.173070	757.337650	35.768670	539.131770	587.521670	90.666160	494.484130	676.906680	28.261370	461.562680	469.001680	40.027020	462.649540	628.259090	67.436930	638.753360	540.209290	70.234770	704.367430	465.721370	133.683670	661.974490	333.670260	88.644250	667.358830	616.914060	1159.555300	873.130620	367.233980	1143.748500	908.955810	737.152590	1192.092700	127.803250	645.765500	1075.753800	-83.443290	
1169	11.6800	824.161250	1015.821400	532.863710	591.454830	1448.124000	664.788090	521.829280	1348.619400	502.575100	610.534850	1430.965900	337.276370	621.239990	1491.752100	524.447570	610.808110	926.968260	400.340580	604.520140	971.842290	670.849490	569.013850	729.052860	442.403440	657.243960	617.684270	397.487430	576.564820	572.284360	478.158940	577.789000	487.751800	476.851810	516.203190	793.648130	618.725400	546.436770	671.959410	694.601260	462.745120	605.450930	606.439210	440.017430	531.395630	602.564330	467.691280	457.645510	625.759770	547.351320	350.116030	705.415410	504.010190	230.790470	639.750850	602.291990	396.496120	478.889370	674.741820	286.241670	427.999180	626.108460	198.595310	495.044710	757.353450	35.763370	539.160640	587.580930	90.676250	494.480320	676.896850	28.248300	461.572780	469.036350	40.134500	462.622960	630.411990	68.182270	639.030210	541.940670	70.665220	704.376160	467.282350	133.597580	661.762570	335.343260	87.789120	666.867370	617.128230	1159.300500	873.101010	367.336120	1144.155900	908.981690	737.491150	1192.084500	127.725020	645.555360	1076.216700	-83.560250	
1170	11.6900	824.097960	1015.348000	532.890690	592.833620	1448.262900	664.964050	522.841190	1349.219400	502.641020	612.308780	1431.468000	337.454740	623.015870	1491.957000	524.730470	610.584590	927.144960	399.808530	604.056090	972.006770	670.370060	568.844180	729.146610	442.015960	657.190370	617.619140	397.227810	576.497190	572.109010	477.715520	577.616030	487.723510	476.606170	515.449040	793.708440	617.306520	545.254640	672.047300	693.377750	462.292140	605.518860	604.808840	439.563450	531.191470	601.249450	467.591000	457.268550	624.762210	547.736940	350.351590	704.787900	505.185240	230.626360	639.357240	601.905210	396.513090	478.874760	674.739990	286.203860	427.761840	626.153560	198.512830	494.877080	757.193420	35.613970	539.053220	587.591130	90.707210	494.399780	676.978880	28.248800	461.549800	469.083800	40.259540	462.552220	632.769710	68.827420	639.217160	544.129270	70.857690	704.374690	469.115600	133.403700	661.455020	337.521970	86.821060	666.523320	617.317750	1159.080000	873.019100	367.403780	1144.723300	908.878720	737.832760	1192.047700	127.579470	645.455140	1076.656400	-83.721850	
1171	11.7000	824.022770	1014.878600	532.907840	594.175050	1448.322100	665.143860	524.049130	1349.785600	502.506740	614.093320	1431.905300	337.594150	624.562010	1492.100200	524.991460	610.663570	927.458620	399.115570	603.640810	971.983580	669.902100	568.784180	729.028500	441.440490	657.117980	617.527590	396.985410	576.367190	572.013180	477.420720	577.405270	487.659000	476.375520	514.820860	793.661500	615.958130	544.311160	672.081540	692.247860	462.019380	605.390080	603.126040	439.476140	530.428340	599.745670	467.786130	456.744510	623.800110	548.427980	350.574950	704.098080	506.857150	230.339080	638.837770	601.377500	396.583800	478.841340	674.771060	286.086360	427.451600	626.143550	198.493420	494.750950	757.228520	35.602000	539.051940	587.716130	90.828830	494.300720	676.998350	28.229940	461.528990	469.096950	40.345230	462.524870	635.143550	69.217580	639.216670	546.820310	71.144710	704.471620	471.394590	133.082720	661.232240	340.114350	85.708130	666.366940	617.407650	1158.877100	872.917240	367.416080	1145.361700	908.752080	738.166500	1192.007600	127.476740	645.440490	1077.006600	-83.840180	
1172	11.7100	823.900940	1014.457900	532.920650	595.462520	1448.451300	665.337160	525.226810	1350.388300	502.290770	615.799680	1432.274400	337.737270	626.025450	1492.210200	525.143070	610.693360	927.717040	398.474430	603.152280	972.019590	669.330810	569.447690	728.686710	440.793300	657.024170	617.525090	396.742520	576.187930	571.909000	477.053340	577.034000	487.694610	476.111510	514.219420	793.474000	614.533390	543.518800	671.917480	691.044490	461.851900	605.199950	601.558290	439.505130	529.626590	598.412410	468.178620	456.156710	622.826600	549.567380	350.706300	703.419560	508.790250	230.052780	638.495420	601.342710	396.565280	478.526430	674.760620	286.018830	427.075620	626.180910	198.450300	494.548340	757.224610	35.578360	539.060420	587.723690	90.886650	494.170500	677.036500	28.232770	461.496640	469.119140	40.460370	462.478730	637.918760	69.575070	639.216060	549.793880	71.321310	704.634460	474.028290	132.669590	661.186520	343.067410	84.394510	666.235410	617.423100	1158.645800	872.777470	367.434660	1145.926000	908.609070	738.524410	1191.975200	127.302510	645.479000	1077.253700	-83.993280	
1173	11.7200	823.770260	1014.061200	532.855710	596.641170	1448.524700	665.476380	526.383480	1350.887500	502.209320	617.452390	1432.594800	337.841740	627.528560	1492.365600	525.297670	610.499820	927.911010	397.891240	602.705510	972.159790	668.877620	568.403870	728.965330	440.414890	656.902890	617.457580	396.497190	575.868650	571.805360	476.692200	576.991820	487.451480	475.621980	513.895690	793.165950	613.356870	542.997010	671.627810	689.930110	461.753110	604.849430	600.271610	439.665990	529.135860	597.403500	468.733090	455.412170	621.854680	550.896730	350.806610	702.894290	510.940370	229.663990	638.128970	601.652470	396.478300	477.944920	674.825930	285.975650	426.644230	626.176210	198.408510	494.326780	757.245910	35.546010	539.056270	587.783330	90.943580	494.052830	677.087400	28.169860	461.455600	469.131590	40.549560	462.443540	641.242070	70.064220	639.150150	553.144590	71.490370	704.652830	476.945590	132.158450	661.083980	346.299500	83.171740	666.249080	617.491330	1158.425500	872.559880	367.362400	1146.622700	908.257810	738.821040	1191.903800	127.102790	645.606080	1077.418900	-84.243820	
1174	11.7300	823.623170	1013.629300	532.849430	597.857180	1448.610700	665.531130	527.414860	1351.367200	502.023590	619.127870	1432.778400	338.038330	628.909120	1492.593800	525.503910	610.313600	928.152710	397.478000	602.292540	972.249080	668.399350	568.630620	728.687810	439.748780	656.790410	617.394900	396.232850	575.386230	571.794010	476.385620	576.882870	487.332370	475.306060	513.505680	792.791560	612.140500	542.592100	671.331540	688.911070	461.886470	604.390990	598.858150	440.205540	528.134520	596.192750	469.550840	454.575440	621.102660	552.464840	350.780880	702.358520	513.505740	229.224530	637.857420	602.042720	396.281340	477.292970	674.892330	285.947780	426.153440	626.219420	198.374820	494.055940	757.244320	35.514790	539.028930	587.879580	90.910690	493.958040	677.073060	28.144250	461.443240	469.168370	40.640770	462.429780	644.929570	70.583860	639.307190	556.781920	71.502750	704.744450	480.152770	131.590530	660.904110	349.924350	81.682370	666.339540	617.489260	1158.230800	872.299930	367.322270	1147.491800	907.980710	739.074400	1191.826500	126.830220	645.788820	1077.434400	-84.514950	
